<svg xmlns="http://www.w3.org/2000/svg" width="1080" height="1080" fill="none" viewBox="0 0 1080 1080">
  <path fill="#2E3440" d="M803.502 1024.56c-14.125-.43-31.05-9.15-41.428-19.35-114.786-113.134-228.429-227.308-342.423-341.14C304.955 549.365 190.43 434.498 75.212 320.396c-14.21-14.115-21.017-28.058-20.668-48.459 1.307-63.018 1.392-126.207 0-189.315-.517-21.881 6.546-27.542 27.647-27.11 63.147 1.309 126.387-.604 189.441 1.22 14.569.433 32.357 7.236 42.563 17.26a172800.569 172800.569 0 0 1 692.965 692.486c9.5 9.503 16.14 26.146 16.48 39.656 1.65 63.018 0 126.207 1.14 189.315.43 21.611-4.46 31.111-28.526 30.511-64.276-1.48-128.556.7-192.753-1.4h.001ZM884.7 402.246c-33.838-35.304-68.99-69.381-103.617-103.986-33.057-33.036-65.503-66.766-99.432-98.838-17.008-16.038-19.708-28.241-1.22-45.243 33.662-30.685 60.88-74 99.954-91.611 35.5-15.95 83.204-4.707 125.595-5.14 31.482-.344 63.059.703 94.54-.344 17.71-.605 25.3 4.18 24.95 23.533-.96 64.153.79 128.304-1.13 192.357-.44 14.646-8.11 31.732-17.98 42.887-26.682 29.98-56.867 56.83-84.515 86.034-13.503 14.21-23.182 14.987-37.135.345l-.01.006ZM82.459 1024.38c-21.72.34-28.178-8.01-27.907-28.761.875-65.201-.345-130.392.96-195.588.26-11.503 6.187-25.369 14.125-33.901 27.994-30.326 58.441-58.395 86.962-88.292 12.818-13.423 22.237-12.724 34.798.344 34.021 35.121 68.99 69.293 103.617 103.896 33.838 33.73 66.723 68.506 101.79 100.935 18.404 17.086 16.925 28.33-.703 44.452-27.995 25.629-53.286 54.303-81.464 79.835-9.419 8.54-24.072 15.69-36.461 15.95-65.243 1.57-130.482.08-195.714 1.13h-.003Z"/>
</svg>
